<?xml version="1.0" standalone="no"?>
<!DOCTYPE svg PUBLIC "-//W3C//DTD SVG 20010904//EN"
 "http://www.w3.org/TR/2001/REC-SVG-20010904/DTD/svg10.dtd">
<svg version="1.0" xmlns="http://www.w3.org/2000/svg"
 width="634.000000pt" height="364.000000pt" viewBox="0 0 634.000000 364.000000"
 preserveAspectRatio="xMidYMid meet">

<g transform="translate(0.000000,364.000000) scale(0.100000,-0.100000)"
fill="#000000" stroke="none">
<path d="M930 2549 c-333 -281 -606 -515 -608 -519 -2 -6 915 -1098 1018
-1213 3 -4 246 195 538 443 l531 450 1786 0 1785 0 0 155 0 155 -1783 0 -1783
0 -430 507 c-236 278 -434 513 -439 521 -9 11 -131 -88 -615 -499z m905 -289
c256 -302 323 -387 313 -396 -74 -69 -755 -637 -764 -638 -7 -1 -160 172 -339
383 -261 308 -323 387 -313 397 62 59 763 644 769 642 4 -2 154 -176 334 -388z"/>
</g>
</svg>
